<svg width="41" height="38" viewBox="0 0 41 38" fill="none" xmlns="http://www.w3.org/2000/svg">
<path d="M39.5105 8.26778H30.4477V1.19247C30.4477 0.533908 29.9138 0 29.2552 0H1.19247C0.533908 0 0 0.533908 0 1.19247V32.0377C0 35.3253 2.67471 38 5.96234 38H34.7406C38.0282 38 40.7029 35.3253 40.7029 32.0377V9.46025C40.7029 8.80169 40.169 8.26778 39.5105 8.26778ZM5.96234 35.6151C3.98976 35.6151 2.38494 34.0102 2.38494 32.0377V2.38494H28.0628C28.0628 33.9032 28.0477 32.1509 28.0901 32.6003C28.1938 33.7058 28.6061 34.7482 29.258 35.6151H5.96234ZM38.318 32.0377C38.318 34.0102 36.7132 35.6151 34.7406 35.6151C34.473 35.6151 34.2878 35.6151 34.0251 35.6151C32.0525 35.6151 30.4477 34.0102 30.4477 32.0377V10.6527H38.318V32.0377Z" fill="white"/>
<path d="M24.1674 5.72388H6.35983C5.70127 5.72388 5.16736 6.25778 5.16736 6.91635C5.16736 7.57491 5.70127 8.10881 6.35983 8.10881H24.1674C24.8259 8.10881 25.3598 7.57491 25.3598 6.91635C25.3598 6.25778 24.8259 5.72388 24.1674 5.72388Z" fill="white"/>
<path d="M24.1674 10.8118H6.35983C5.70127 10.8118 5.16736 11.3457 5.16736 12.0042C5.16736 12.6628 5.70127 13.1967 6.35983 13.1967H24.1674C24.8259 13.1967 25.3598 12.6628 25.3598 12.0042C25.3598 11.3457 24.8259 10.8118 24.1674 10.8118Z" fill="white"/>
<path d="M24.1674 29.8911H6.35983C5.70127 29.8911 5.16736 30.425 5.16736 31.0836C5.16736 31.7421 5.70127 32.2761 6.35983 32.2761H24.1674C24.8259 32.2761 25.3598 31.7421 25.3598 31.0836C25.3598 30.425 24.8259 29.8911 24.1674 29.8911Z" fill="white"/>
<path d="M24.1673 15.8997H15.2636C14.605 15.8997 14.0711 16.4336 14.0711 17.0921V25.9959C14.0711 26.6545 14.605 27.1884 15.2636 27.1884H24.1673C24.8259 27.1884 25.3598 26.6545 25.3598 25.9959V17.0921C25.3598 16.4336 24.8259 15.8997 24.1673 15.8997ZM22.9749 24.8034H16.456V18.2846H22.9749V24.8034Z" fill="white"/>
<path d="M6.35983 20.1926H10.1757C10.8343 20.1926 11.3682 19.6586 11.3682 19.0001C11.3682 18.3415 10.8343 17.8076 10.1757 17.8076H6.35983C5.70127 17.8076 5.16736 18.3415 5.16736 19.0001C5.16736 19.6586 5.70127 20.1926 6.35983 20.1926Z" fill="white"/>
<path d="M6.35983 25.2804H10.1757C10.8343 25.2804 11.3682 24.7465 11.3682 24.088C11.3682 23.4294 10.8343 22.8955 10.1757 22.8955H6.35983C5.70127 22.8955 5.16736 23.4294 5.16736 24.088C5.16736 24.7465 5.70127 25.2804 6.35983 25.2804Z" fill="white"/>
</svg>
