<svg width="41" height="41" viewBox="0 0 41 41" fill="none" xmlns="http://www.w3.org/2000/svg">
<path d="M16.5486 4.80518H4.80585V16.5479H16.5486V4.80518ZM14.1461 14.1454H7.20835V7.20768H14.1461V14.1462V14.1454Z" fill="white"/>
<path d="M9.47638 9.47461H11.8789V11.8771H9.47638V9.47461Z" fill="white"/>
<path d="M4.80585 36.1927H16.5486V24.45H4.80585V36.1927ZM7.20835 26.8525H14.1461V33.791H7.20835V26.8525Z" fill="white"/>
<path d="M36.1958 25.6511H33.7933V33.7909H31.4416V32.0042H29.0391V33.7909H26.1069V36.1934H36.1925L36.1958 25.6511Z" fill="white"/>
<path d="M9.47638 29.1194H11.8789V31.5219H9.47638V29.1194Z" fill="white"/>
<path d="M36.1959 4.80518H24.4531V16.5479H36.1959V4.80518ZM33.7934 14.1454H26.8548V7.20768H33.7934V14.1454Z" fill="white"/>
<path d="M29.1236 9.47461H31.5261V11.8771H29.1236V9.47461Z" fill="white"/>
<path d="M9.61011 19.2974H16.5487V21.6999H9.61011V19.2974Z" fill="white"/>
<path d="M4.80585 19.2974H7.20835V21.6999H4.80585V19.2974Z" fill="white"/>
<path d="M18.9511 19.2974H27.8888V21.6999H18.9511V19.2974Z" fill="white"/>
<path d="M36.1958 23.2482V19.2976H30.2921V21.7001H33.7925V23.249L36.1958 23.2482Z" fill="white"/>
<path d="M19.3004 9.60913H21.7029V16.5477H19.3004V9.60913Z" fill="white"/>
<path d="M19.3004 4.80396H21.7029V7.20646H19.3004V4.80396Z" fill="white"/>
<path d="M21.7029 31.3874H23.4896V28.9882H21.7029V24.4521H19.3004V36.1949H23.7045V33.7924H21.7029V31.3874Z" fill="white"/>
<path d="M26.6391 28.6391H29.0416V26.8556H30.985V24.4531H24.6876V26.8556H26.6391V28.6391Z" fill="white"/>
<path d="M32.5896 0V2.4025H38.5975V8.40877H41V0H32.5896Z" fill="white"/>
<path d="M2.40251 2.40421H8.41041V0.00170898H0V8.40966H2.40251V2.40421Z" fill="white"/>
<path d="M38.5975 38.5951H32.5896V40.9976H41V32.5889H38.5975V38.5951Z" fill="white"/>
<path d="M2.40251 32.5889H0V40.9968H8.41041V38.5943H2.40251V32.5889Z" fill="white"/>
</svg>
