<svg width="428" height="387" viewBox="0 0 428 387" fill="none" xmlns="http://www.w3.org/2000/svg">
<path d="M101 228.5C101 267.436 69.4361 299 30.5 299C-8.43607 299 -40 267.436 -40 228.5C-40 189.564 -8.43607 158 30.5 158C69.4361 158 101 189.564 101 228.5Z" fill="#FFE145"/>
<path d="M204 165C204 216.362 162.362 258 111 258C59.6375 258 18 216.362 18 165C18 113.638 59.6375 72 111 72C162.362 72 204 113.638 204 165Z" fill="#FDC229"/>
<path d="M340 126C340 195.588 283.588 252 214 252C144.412 252 88 195.588 88 126C88 56.4121 144.412 0 214 0C283.588 0 340 56.4121 340 126Z" fill="#FDA829"/>
<path d="M471 152.5C471 233.41 405.41 299 324.5 299C243.59 299 178 233.41 178 152.5C178 71.5903 243.59 6 324.5 6C405.41 6 471 71.5903 471 152.5Z" fill="#FF9900"/>
<path d="M610 226C610 314.918 537.918 387 449 387C360.082 387 288 314.918 288 226C288 137.082 360.082 65 449 65C537.918 65 610 137.082 610 226Z" fill="#FF7A00"/>
</svg>
