<svg width="46" height="45" viewBox="0 0 46 45" fill="none" xmlns="http://www.w3.org/2000/svg">
<path d="M18.1639 5.27417H5.27496V18.1631H18.1639V5.27417ZM15.5269 15.5261H7.91198V7.91118H15.5269V15.527V15.5261Z" fill="white"/>
<path d="M10.4014 10.3994H13.0384V13.0364H10.4014V10.3994Z" fill="white"/>
<path d="M5.27496 39.7254H18.1639V26.8364H5.27496V39.7254ZM7.91198 29.4734H15.5269V37.0893H7.91198V29.4734Z" fill="white"/>
<path d="M39.7288 28.1548H37.0918V37.0891H34.5106V35.128H31.8736V37.0891H28.6552V39.7261H39.7253L39.7288 28.1548Z" fill="white"/>
<path d="M10.4014 31.9617H13.0384V34.5987H10.4014V31.9617Z" fill="white"/>
<path d="M39.7289 5.27417H26.84V18.1631H39.7289V5.27417ZM37.0919 15.5261H29.4761V7.91118H37.0919V15.5261Z" fill="white"/>
<path d="M31.9664 10.3994H34.6034V13.0364H31.9664V10.3994Z" fill="white"/>
<path d="M10.5481 21.1807H18.1639V23.8177H10.5481V21.1807Z" fill="white"/>
<path d="M5.27496 21.1807H7.91198V23.8177H5.27496V21.1807Z" fill="white"/>
<path d="M20.8009 21.1807H30.611V23.8177H20.8009V21.1807Z" fill="white"/>
<path d="M39.7289 25.5176V21.1814H33.2488V23.8184H37.091V25.5185L39.7289 25.5176Z" fill="white"/>
<path d="M21.1843 10.5471H23.8213V18.163H21.1843V10.5471Z" fill="white"/>
<path d="M21.1843 5.27295H23.8213V7.90996H21.1843V5.27295Z" fill="white"/>
<path d="M23.8213 34.4513H25.7824V31.8179H23.8213V26.8391H21.1843V39.7281H26.0182V37.091H23.8213V34.4513Z" fill="white"/>
<path d="M29.2394 31.4344H31.8764V29.4768H34.0094V26.8398H27.0974V29.4768H29.2394V31.4344Z" fill="white"/>
<path d="M35.7706 0V2.63701H42.365V9.22954H45.002V0H35.7706Z" fill="white"/>
<path d="M2.63701 2.63774H9.23134V0.000732422H0V9.22937H2.63701V2.63774Z" fill="white"/>
<path d="M42.365 42.3623H35.7706V44.9993H45.002V35.7698H42.365V42.3623Z" fill="white"/>
<path d="M2.63701 35.7698H0V44.9984H9.23134V42.3614H2.63701V35.7698Z" fill="white"/>
</svg>
