<svg width="33" height="33" viewBox="0 0 33 33" fill="none" xmlns="http://www.w3.org/2000/svg">
              <path d="M32.5971 30.6529L23.2127 21.2685C25.0305 19.0231 26.125 16.17 26.125 13.0625C26.125 5.86027 20.2647 0 13.0625 0C5.86021 0 0 5.86021 0 13.0625C0 20.2647 5.86027 26.125 13.0625 26.125C16.17 26.125 19.0231 25.0305 21.2685 23.2127L30.6529 32.5971C30.921 32.8652 31.273 33 31.625 33C31.9771 33 32.329 32.8652 32.5972 32.5971C33.1348 32.0595 33.1348 31.1905 32.5971 30.6529ZM13.0625 23.375C7.3755 23.375 2.75002 18.7495 2.75002 13.0625C2.75002 7.37544 7.3755 2.74996 13.0625 2.74996C18.7495 2.74996 23.375 7.37544 23.375 13.0625C23.375 18.7495 18.7495 23.375 13.0625 23.375Z" fill="white"/>
            </svg>