<svg width="24" height="35" viewBox="0 0 24 35" fill="none" xmlns="http://www.w3.org/2000/svg">
<path d="M16.148 25.521H6.90654C6.48094 25.521 6.1355 26.011 6.1355 26.6147C6.1355 27.2185 6.48014 27.7085 6.90654 27.7085H16.148C16.5736 27.7085 16.919 27.2185 16.919 26.6147C16.919 26.011 16.5736 25.521 16.148 25.521Z" fill="white"/>
<path d="M16.148 29.1667H6.90654C6.48094 29.1667 6.1355 29.6567 6.1355 30.2605C6.1355 30.8642 6.48014 31.3542 6.90654 31.3542H16.148C16.5736 31.3542 16.919 30.8642 16.919 30.2605C16.919 29.6567 16.5736 29.1667 16.148 29.1667Z" fill="white"/>
<path d="M13.8395 32.8125H9.21342C8.78782 32.8125 8.44238 33.3025 8.44238 33.9062C8.44238 34.51 8.78703 35 9.21342 35H13.8395C14.2651 35 14.6106 34.51 14.6106 33.9062C14.6106 33.3025 14.2628 32.8125 13.8395 32.8125Z" fill="white"/>
<path d="M22.1796 7.37431C21.8966 6.66481 21.235 5.00308 19.6352 3.3989C17.9475 1.70654 15.939 0.628115 13.6644 0.198616C12.2533 -0.0662055 10.801 -0.0662055 9.38994 0.198616C7.11853 0.628798 5.10929 1.70504 3.41918 3.39815C1.82469 4.99501 1.15854 6.66187 0.874829 7.37355C0.514789 8.27698 -0.155994 9.95772 0.0328804 12.1685C0.241054 14.601 1.36057 16.378 1.72914 16.962C1.96044 17.323 2.42305 18.0128 3.3521 19.2509C3.5834 19.5637 3.78616 19.8196 3.95964 20.042C4.39138 20.5962 4.62962 20.9017 4.87481 21.3837C5.2094 22.0412 5.45574 22.7356 5.60804 23.4509C5.68126 23.7901 5.99671 24.0339 6.36289 24.0342H16.6922C17.0635 24.0337 17.3817 23.783 17.4493 23.4377C17.5866 22.728 17.8304 22.0405 18.1733 21.3961C18.4416 20.8944 18.6891 20.5736 19.1386 19.9903C19.3013 19.7795 19.4864 19.5389 19.7068 19.2458C20.346 18.3941 20.8989 17.6584 21.326 16.9584C21.7346 16.3022 22.8202 14.5522 23.0222 12.1671C23.2058 9.95266 22.5381 8.27555 22.1796 7.37431Z" fill="white"/>
</svg>
